<svg xmlns="http://www.w3.org/2000/svg"  viewBox="0 0 50 50" width="50px" height="50px"><path d="M 10.90625 5.96875 C 10.875 5.976563 10.84375 5.988281 10.8125 6 L 3 6 C 2.96875 6 2.9375 6 2.90625 6 C 2.875 6 2.84375 6 2.8125 6 C 2.335938 6.089844 1.992188 6.511719 2 7 L 2 15 C 2 15.550781 2.449219 16 3 16 L 47 16 C 47.550781 16 48 15.550781 48 15 L 48 7 C 48 6.449219 47.550781 6 47 6 L 11.21875 6 C 11.117188 5.972656 11.011719 5.960938 10.90625 5.96875 Z M 5 8 L 9 8 C 9 8.550781 9.449219 9 10 9 L 10 13 C 9.449219 13 9 13.449219 9 14 L 5 14 C 5 13.449219 4.550781 13 4 13 L 4 9 C 4.550781 9 5 8.550781 5 8 Z M 12 8 L 46 8 L 46 14 L 12 14 Z M 7 10 C 6.449219 10 6 10.449219 6 11 C 6 11.550781 6.449219 12 7 12 C 7.550781 12 8 11.550781 8 11 C 8 10.449219 7.550781 10 7 10 Z M 34.90625 19.96875 C 34.875 19.976563 34.84375 19.988281 34.8125 20 L 3 20 C 2.96875 20 2.9375 20 2.90625 20 C 2.875 20 2.84375 20 2.8125 20 C 2.335938 20.089844 1.992188 20.511719 2 21 L 2 29 C 2 29.550781 2.449219 30 3 30 L 47 30 C 47.550781 30 48 29.550781 48 29 L 48 21 C 48 20.449219 47.550781 20 47 20 L 35.21875 20 C 35.117188 19.972656 35.011719 19.960938 34.90625 19.96875 Z M 5 22 L 9 22 C 9 22.550781 9.449219 23 10 23 C 10.550781 23 11 22.550781 11 22 L 15 22 C 15 22.550781 15.449219 23 16 23 C 16.550781 23 17 22.550781 17 22 L 21 22 C 21 22.550781 21.449219 23 22 23 C 22.550781 23 23 22.550781 23 22 L 27 22 C 27 22.550781 27.449219 23 28 23 C 28.550781 23 29 22.550781 29 22 L 33 22 C 33 22.550781 33.449219 23 34 23 L 34 27 C 33.449219 27 33 27.449219 33 28 L 29 28 C 29 27.449219 28.550781 27 28 27 C 27.449219 27 27 27.449219 27 28 L 23 28 C 23 27.449219 22.550781 27 22 27 C 21.449219 27 21 27.449219 21 28 L 17 28 C 17 27.449219 16.550781 27 16 27 C 15.449219 27 15 27.449219 15 28 L 11 28 C 11 27.449219 10.550781 27 10 27 C 9.449219 27 9 27.449219 9 28 L 5 28 C 5 27.449219 4.550781 27 4 27 L 4 23 C 4.550781 23 5 22.550781 5 22 Z M 36 22 L 46 22 L 46 28 L 36 28 Z M 7 24 C 6.449219 24 6 24.449219 6 25 C 6 25.550781 6.449219 26 7 26 C 7.550781 26 8 25.550781 8 25 C 8 24.449219 7.550781 24 7 24 Z M 13 24 C 12.449219 24 12 24.449219 12 25 C 12 25.550781 12.449219 26 13 26 C 13.550781 26 14 25.550781 14 25 C 14 24.449219 13.550781 24 13 24 Z M 19 24 C 18.449219 24 18 24.449219 18 25 C 18 25.550781 18.449219 26 19 26 C 19.550781 26 20 25.550781 20 25 C 20 24.449219 19.550781 24 19 24 Z M 25 24 C 24.449219 24 24 24.449219 24 25 C 24 25.550781 24.449219 26 25 26 C 25.550781 26 26 25.550781 26 25 C 26 24.449219 25.550781 24 25 24 Z M 31 24 C 30.449219 24 30 24.449219 30 25 C 30 25.550781 30.449219 26 31 26 C 31.550781 26 32 25.550781 32 25 C 32 24.449219 31.550781 24 31 24 Z M 22.90625 33.96875 C 22.875 33.976563 22.84375 33.988281 22.8125 34 L 3 34 C 2.96875 34 2.9375 34 2.90625 34 C 2.875 34 2.84375 34 2.8125 34 C 2.335938 34.089844 1.992188 34.511719 2 35 L 2 43 C 2 43.550781 2.449219 44 3 44 L 47 44 C 47.550781 44 48 43.550781 48 43 L 48 35 C 48 34.449219 47.550781 34 47 34 L 23.21875 34 C 23.117188 33.972656 23.011719 33.960938 22.90625 33.96875 Z M 5 36 L 9 36 C 9 36.550781 9.449219 37 10 37 C 10.550781 37 11 36.550781 11 36 L 15 36 C 15 36.550781 15.449219 37 16 37 C 16.550781 37 17 36.550781 17 36 L 21 36 C 21 36.550781 21.449219 37 22 37 L 22 41 C 21.449219 41 21 41.449219 21 42 L 17 42 C 17 41.449219 16.550781 41 16 41 C 15.449219 41 15 41.449219 15 42 L 11 42 C 11 41.449219 10.550781 41 10 41 C 9.449219 41 9 41.449219 9 42 L 5 42 C 5 41.449219 4.550781 41 4 41 L 4 37 C 4.550781 37 5 36.550781 5 36 Z M 24 36 L 46 36 L 46 42 L 24 42 Z M 7 38 C 6.449219 38 6 38.449219 6 39 C 6 39.550781 6.449219 40 7 40 C 7.550781 40 8 39.550781 8 39 C 8 38.449219 7.550781 38 7 38 Z M 13 38 C 12.449219 38 12 38.449219 12 39 C 12 39.550781 12.449219 40 13 40 C 13.550781 40 14 39.550781 14 39 C 14 38.449219 13.550781 38 13 38 Z M 19 38 C 18.449219 38 18 38.449219 18 39 C 18 39.550781 18.449219 40 19 40 C 19.550781 40 20 39.550781 20 39 C 20 38.449219 19.550781 38 19 38 Z"/></svg>